<svg xmlns="http://www.w3.org/2000/svg" viewBox="0 0 46.28 46.28"><defs><style>.cls-1{fill:#fff;stroke:#606060;stroke-miterlimit:10;}.cls-2{fill:#222;}.cls-3{fill:#ffde25;}</style></defs><g id="Layer_2" data-name="Layer 2"><g id="Layer_1-2" data-name="Layer 1"><rect class="cls-1" x="0.5" y="0.5" width="45.28" height="45.28" rx="5"/><path class="cls-2" d="M6.47,25.88V22.12h4.69V21.9H6.47V18.47h5v-.22H6.25V26.1H11.5v-.22Zm9.26-5.43L13.79,23l-1.9-2.56H11.6l2.06,2.72L11.4,26.1h.27l2.12-2.76,2.13,2.76h.28l-2.27-2.93L16,20.45ZM16.86,28V24.51h0a2.22,2.22,0,0,0,.78,1.24,2.3,2.3,0,0,0,1.48.47,2.19,2.19,0,0,0,1-.24,2.21,2.21,0,0,0,.75-.64,3.11,3.11,0,0,0,.46-.95,3.86,3.86,0,0,0,.16-1.13,4,4,0,0,0-.17-1.18,2.55,2.55,0,0,0-.47-.93,2.17,2.17,0,0,0-.76-.62,2.34,2.34,0,0,0-1-.22,2.52,2.52,0,0,0-.79.13,1.92,1.92,0,0,0-.66.36,2.29,2.29,0,0,0-.49.54,2.42,2.42,0,0,0-.32.69h0V20.45h-.22V28Zm2.28-2a2.12,2.12,0,0,1-1.66-.71,3,3,0,0,1-.62-2A3.6,3.6,0,0,1,17,22.21a2.62,2.62,0,0,1,.45-.86,2.07,2.07,0,0,1,1.68-.82,2.06,2.06,0,0,1,1,.22,2,2,0,0,1,.69.6,2.67,2.67,0,0,1,.4.87,3.9,3.9,0,0,1,.14,1,3.62,3.62,0,0,1-.13,1,2.6,2.6,0,0,1-.39.88,2.05,2.05,0,0,1-.67.64,2,2,0,0,1-1,.25Zm3.62.09V22.9a3,3,0,0,1,.13-.9,2.08,2.08,0,0,1,.41-.78,1.88,1.88,0,0,1,.7-.53,2.09,2.09,0,0,1,1-.16v-.22a2.9,2.9,0,0,0-.88.11,2.15,2.15,0,0,0-.66.33,1.85,1.85,0,0,0-.44.49,2.22,2.22,0,0,0-.24.6h0V20.45h-.22V26.1Zm2.52-2.79H30a3.81,3.81,0,0,0-.11-1.12,2.76,2.76,0,0,0-.44-1,2.11,2.11,0,0,0-.78-.67,2.4,2.4,0,0,0-1.14-.26,2.28,2.28,0,0,0-.92.2,2.38,2.38,0,0,0-.8.58,2.81,2.81,0,0,0-.54.93,3.45,3.45,0,0,0-.21,1.25,4.37,4.37,0,0,0,.14,1.17,2.68,2.68,0,0,0,.44.95,2.1,2.1,0,0,0,.76.62,2.75,2.75,0,0,0,1.13.21,2.51,2.51,0,0,0,1.63-.55,2.23,2.23,0,0,0,.78-1.53h-.22a2.14,2.14,0,0,1-.73,1.4,2.34,2.34,0,0,1-1.48.47,2.2,2.2,0,0,1-1-.21,1.92,1.92,0,0,1-.69-.57,2.82,2.82,0,0,1-.39-.86,4.33,4.33,0,0,1-.13-1.06Zm4.5-.22h-4.5A3.17,3.17,0,0,1,25.5,22a2.34,2.34,0,0,1,.49-.81,2.08,2.08,0,0,1,1.56-.69,2.13,2.13,0,0,1,1,.21,2,2,0,0,1,.7.55,2.55,2.55,0,0,1,.42.82,3.18,3.18,0,0,1,.14,1Zm4.78-1h.22a1.67,1.67,0,0,0-.54-1.38,2.43,2.43,0,0,0-1.5-.43,2.56,2.56,0,0,0-.89.14,1.61,1.61,0,0,0-.59.34,1.1,1.1,0,0,0-.33.46,1.25,1.25,0,0,0-.1.48,1.45,1.45,0,0,0,.16.74,1.13,1.13,0,0,0,.52.43,3.2,3.2,0,0,0,.55.19c.2.06.44.13.71.19l.72.18a2.66,2.66,0,0,1,.62.23,1.48,1.48,0,0,1,.44.38,1,1,0,0,1,.17.61,1.09,1.09,0,0,1-.17.61,1.36,1.36,0,0,1-.44.42,2.13,2.13,0,0,1-.58.23,3.58,3.58,0,0,1-.64.07,2.33,2.33,0,0,1-1.53-.45,1.72,1.72,0,0,1-.53-1.4h-.22a2,2,0,0,0,.57,1.56,2.58,2.58,0,0,0,1.71.5,3.12,3.12,0,0,0,.74-.09,1.79,1.79,0,0,0,.65-.27,1.33,1.33,0,0,0,.66-1.2,1.15,1.15,0,0,0-.16-.66,1.4,1.4,0,0,0-.42-.42,2,2,0,0,0-.58-.26l-.66-.18-.8-.21a5.51,5.51,0,0,1-.65-.21,1.06,1.06,0,0,1-.45-.35,1,1,0,0,1-.17-.64,1.31,1.31,0,0,1,0-.27.91.91,0,0,1,.21-.4,1.4,1.4,0,0,1,.51-.37,2.29,2.29,0,0,1,.93-.16,2.83,2.83,0,0,1,.74.09,1.49,1.49,0,0,1,.58.28,1.21,1.21,0,0,1,.37.49,1.77,1.77,0,0,1,.13.73Zm5.09,0h.22a1.64,1.64,0,0,0-.55-1.38,2.38,2.38,0,0,0-1.49-.43,2.56,2.56,0,0,0-.89.14,1.61,1.61,0,0,0-.59.34,1.1,1.1,0,0,0-.33.46,1.25,1.25,0,0,0-.1.48,1.45,1.45,0,0,0,.16.74,1.13,1.13,0,0,0,.52.43,3.2,3.2,0,0,0,.55.19c.2.06.44.13.71.19l.72.18a2.66,2.66,0,0,1,.62.23,1.48,1.48,0,0,1,.44.38,1,1,0,0,1,.17.61,1.09,1.09,0,0,1-.17.61,1.36,1.36,0,0,1-.44.42,2.13,2.13,0,0,1-.58.23A3.58,3.58,0,0,1,38,26a2.33,2.33,0,0,1-1.53-.45,1.69,1.69,0,0,1-.53-1.4H35.7a2,2,0,0,0,.57,1.56,2.58,2.58,0,0,0,1.71.5,3,3,0,0,0,.73-.09,1.77,1.77,0,0,0,.66-.27,1.33,1.33,0,0,0,.66-1.2,1.15,1.15,0,0,0-.16-.66,1.4,1.4,0,0,0-.42-.42,2.18,2.18,0,0,0-.58-.26l-.66-.18-.8-.21a5.51,5.51,0,0,1-.65-.21,1.06,1.06,0,0,1-.45-.35,1,1,0,0,1-.17-.64,1.31,1.31,0,0,1,0-.27.91.91,0,0,1,.21-.4,1.4,1.4,0,0,1,.51-.37,2.29,2.29,0,0,1,.93-.16,2.83,2.83,0,0,1,.74.09,1.49,1.49,0,0,1,.58.28,1.3,1.3,0,0,1,.37.49,1.77,1.77,0,0,1,.13.73Z"/><rect class="cls-3" x="31.73" y="28.35" width="8.29" height="8.29"/><path d="M35.63,32.06h.45v2.67a1.28,1.28,0,0,1-.13.61.9.9,0,0,1-.37.38,1.13,1.13,0,0,1-.56.13,1.35,1.35,0,0,1-.55-.11,1,1,0,0,1-.38-.32.91.91,0,0,1-.13-.5h.44a.51.51,0,0,0,.08.28.55.55,0,0,0,.22.18.66.66,0,0,0,.32.07.67.67,0,0,0,.33-.08.61.61,0,0,0,.21-.24,1,1,0,0,0,.07-.4Z"/><path d="M38.93,33a.55.55,0,0,0-.27-.43,1,1,0,0,0-.57-.16,1.1,1.1,0,0,0-.43.08.74.74,0,0,0-.29.22.54.54,0,0,0-.11.32.45.45,0,0,0,.08.26.62.62,0,0,0,.18.18l.24.11.23.07.38.11.32.1A2.31,2.31,0,0,1,39,34a1,1,0,0,1,.27.3.87.87,0,0,1,.11.44,1,1,0,0,1-.16.55,1.11,1.11,0,0,1-.46.39,1.64,1.64,0,0,1-.73.14,1.86,1.86,0,0,1-.7-.12,1.13,1.13,0,0,1-.46-.37,1.06,1.06,0,0,1-.19-.53h.47a.55.55,0,0,0,.14.34.78.78,0,0,0,.32.21,1.42,1.42,0,0,0,.42.07,1.14,1.14,0,0,0,.46-.09.75.75,0,0,0,.33-.24.55.55,0,0,0,.12-.35.45.45,0,0,0-.11-.31.81.81,0,0,0-.27-.19,2.68,2.68,0,0,0-.37-.12L37.77,34a1.87,1.87,0,0,1-.69-.36.8.8,0,0,1-.25-.62.83.83,0,0,1,.17-.54,1.07,1.07,0,0,1,.46-.37A1.47,1.47,0,0,1,38.1,32a1.44,1.44,0,0,1,.64.13,1.06,1.06,0,0,1,.45.35.93.93,0,0,1,.18.51Z"/></g></g></svg>