<svg xmlns="http://www.w3.org/2000/svg" viewBox="0 0 46.28 46.28"><defs><style>.cls-1{fill:#fff;stroke:#606060;stroke-miterlimit:10;}</style></defs><g id="Layer_2" data-name="Layer 2"><g id="Layer_1-2" data-name="Layer 1"><rect class="cls-1" x="0.5" y="0.5" width="45.28" height="45.28" rx="5"/><path d="M14.22,18.26h6.37v.51H14.8v3.81h5.45v.51H14.8v4.18h5.86v.51H14.22Zm6.94,0h.68l3,4.19,3.06-4.19L32.07,13l-6.85,9.94,3.53,4.89h-.7l-3.21-4.45-3.23,4.45h-.69l3.56-4.89Zm7.85.51v-.51h7.26v.51H32.92v9h-.58v-9ZM6.25,18.26H7L17.05,33.33l-4.16-5.55-6-8.8,0,8.8H6.25Zm30,8.86a.21.21,0,1,1,.21-.21A.21.21,0,0,1,36.21,27.12Zm.57-.56h.31a.29.29,0,0,0,.31.28c.21,0,.32-.12.32-.35V25H38V26.5a.63.63,0,0,1-1.26.06Zm1.68,0h.31c0,.2.22.32.49.32s.45-.13.45-.31-.12-.25-.39-.32l-.27-.06c-.37-.09-.54-.27-.54-.57s.3-.61.75-.61a.68.68,0,0,1,.74.59h-.31a.4.4,0,0,0-.44-.31c-.25,0-.42.13-.42.31s.11.23.38.29l.22.06c.42.1.6.27.6.58s-.31.64-.79.64-.76-.24-.78-.61Z"/></g></g></svg>