<svg xmlns="http://www.w3.org/2000/svg" xmlns:xlink="http://www.w3.org/1999/xlink" viewBox="0 0 46.28 46.28"><defs><style>.cls-1,.cls-2{fill:#fff;}.cls-2{stroke:#606060;stroke-miterlimit:10;}.cls-3{fill:#539e43;}.cls-4{fill:#333;}.cls-5{fill:url(#linear-gradient);}.cls-6{mask:url(#mask);}.cls-7{fill:none;}.cls-8{fill:url(#linear-gradient-2);}.cls-9{mask:url(#mask-2);}.cls-10,.cls-11,.cls-12,.cls-13,.cls-14{fill-rule:evenodd;}.cls-10{fill:url(#linear-gradient-3);}.cls-11{fill:url(#linear-gradient-4);}.cls-12{fill:url(#linear-gradient-5);}.cls-13{fill:url(#linear-gradient-6);}.cls-14{fill:url(#linear-gradient-7);}</style><linearGradient id="linear-gradient" x1="-288.75" y1="187.26" x2="-288.75" y2="187.25" gradientTransform="matrix(532.1, 0, 0, -606.29, 153662.13, 113554.53)" gradientUnits="userSpaceOnUse"><stop offset="0" stop-color="#41873f"/><stop offset="0.33" stop-color="#418b3d"/><stop offset="0.64" stop-color="#419637"/><stop offset="0.93" stop-color="#3fa92d"/><stop offset="1" stop-color="#3fae2a"/></linearGradient><mask id="mask" x="15.1" y="17.53" width="7.24" height="8.2" maskUnits="userSpaceOnUse"><g id="c"><path id="a" class="cls-1" d="M18.92,17.58a.45.45,0,0,0-.39,0l-3.21,1.86a.37.37,0,0,0-.19.33v3.72a.41.41,0,0,0,.19.33l3.21,1.85a.39.39,0,0,0,.39,0l3.21-1.85a.39.39,0,0,0,.19-.33V19.77a.37.37,0,0,0-.19-.33Z"/></g></mask><linearGradient id="linear-gradient-2" x1="-288.77" y1="187.26" x2="-288.76" y2="187.27" gradientTransform="matrix(519.69, 0, 0, -606.04, 150090.08, 113509.7)" gradientUnits="userSpaceOnUse"><stop offset="0.14" stop-color="#41873f"/><stop offset="0.4" stop-color="#54a044"/><stop offset="0.71" stop-color="#66b848"/><stop offset="0.91" stop-color="#6cc04a"/></linearGradient><mask id="mask-2" x="15.1" y="16.91" width="7.34" height="8.93" maskUnits="userSpaceOnUse"><g id="c-2" data-name="c"><path id="a-2" data-name="a" class="cls-1" d="M18.92,17.58a.45.45,0,0,0-.39,0l-3.21,1.86a.37.37,0,0,0-.19.33v3.72a.41.41,0,0,0,.19.33l3.21,1.85a.39.39,0,0,0,.39,0l3.21-1.85a.39.39,0,0,0,.19-.33V19.77a.37.37,0,0,0-.19-.33Z"/></g></mask><linearGradient id="linear-gradient-3" x1="-416.02" y1="1185.77" x2="-414.7" y2="1185.77" gradientTransform="matrix(4.51, 0, 0, -1.69, 1892.4, 2025.74)" gradientUnits="userSpaceOnUse"><stop offset="0.09" stop-color="#6cc04a"/><stop offset="0.29" stop-color="#66b848"/><stop offset="0.6" stop-color="#54a044"/><stop offset="0.86" stop-color="#41873f"/></linearGradient><linearGradient id="linear-gradient-4" x1="-288.8" y1="187.26" x2="-288.78" y2="187.26" gradientTransform="matrix(519.13, 0, 0, -606.53, 149937.34, 113598.66)" xlink:href="#linear-gradient-3"/><linearGradient id="linear-gradient-5" x1="-802.56" y1="739.9" x2="-801.24" y2="739.9" gradientTransform="matrix(1.69, 0, 0, -3.95, 1379.82, 2946.09)" xlink:href="#linear-gradient-3"/><linearGradient id="linear-gradient-6" x1="-290.38" y1="197.41" x2="-290.36" y2="197.41" gradientTransform="matrix(268.59, 0, 0, -167.59, 78008.24, 33107.96)" xlink:href="#linear-gradient-3"/><linearGradient id="linear-gradient-7" x1="-290.35" y1="197.45" x2="-290.37" y2="197.39" gradientTransform="matrix(268.59, 0, 0, -167.59, 78008.24, 33107.96)" xlink:href="#linear-gradient"/></defs><g id="Layer_2" data-name="Layer 2"><g id="Layer_1-2" data-name="Layer 1"><rect class="cls-2" x="0.5" y="0.5" width="45.28" height="45.28" rx="5"/><g id="c-3" data-name="c"><path id="a-3" data-name="a" class="cls-1" d="M18.92,17.58a.45.45,0,0,0-.39,0l-3.21,1.86a.37.37,0,0,0-.19.33v3.72a.41.41,0,0,0,.19.33l3.21,1.85a.39.39,0,0,0,.39,0l3.21-1.85a.39.39,0,0,0,.19-.33V19.77a.37.37,0,0,0-.19-.33Z"/></g><path class="cls-3" d="M23,33.47a.66.66,0,0,1-.32-.09l-1-.6c-.15-.08-.08-.12,0-.13a1.7,1.7,0,0,0,.46-.21.09.09,0,0,1,.07,0l.78.47H23L26,31.16a.1.1,0,0,0,0-.09V27.56a.1.1,0,0,0,0-.09L23,25.72a.07.07,0,0,0-.09,0l-3,1.75a.12.12,0,0,0-.05.09v3.51a.12.12,0,0,0,.05.09l.83.48c.45.22.73,0,.73-.31V27.86a.1.1,0,0,1,.09-.09h.39a.09.09,0,0,1,.09.09v3.47a.84.84,0,0,1-.9,1,1.32,1.32,0,0,1-.7-.19l-.8-.45a.65.65,0,0,1-.32-.56V27.56a.63.63,0,0,1,.32-.55l3.05-1.76a.66.66,0,0,1,.64,0l3,1.76a.63.63,0,0,1,.32.55v3.52a.65.65,0,0,1-.32.56l-3,1.76a.92.92,0,0,1-.32.07Zm.93-2.42c-1.33,0-1.61-.61-1.61-1.13a.09.09,0,0,1,.1-.09h.39a.08.08,0,0,1,.09.07c.06.41.23.61,1,.61.64,0,.92-.15.92-.49s-.08-.34-1.08-.44c-.83-.09-1.35-.27-1.35-.93s.52-1,1.39-1,1.45.34,1.52,1.07a.11.11,0,0,1,0,.07l-.06,0h-.39a.1.1,0,0,1-.09-.07c-.09-.42-.33-.56-.95-.56s-.79.25-.79.43.1.29,1.05.41,1.38.3,1.38,1S24.86,31.05,23.89,31.05Z"/><path class="cls-4" d="M13.52,19.72a.4.4,0,0,0-.2-.34l-3.23-1.86a.61.61,0,0,0-.18-.05h0a.41.41,0,0,0-.18.05L6.47,19.38a.4.4,0,0,0-.2.34v5a.19.19,0,0,0,.1.17.17.17,0,0,0,.19,0l1.92-1.1a.4.4,0,0,0,.2-.34V21.11a.4.4,0,0,1,.2-.33l.81-.47a.39.39,0,0,1,.2-.06.31.31,0,0,1,.19.06l.82.47a.4.4,0,0,1,.2.33v2.34a.38.38,0,0,0,.2.34l1.92,1.1a.18.18,0,0,0,.2,0,.19.19,0,0,0,.09-.17v-5Zm15.53-6.89a.21.21,0,0,0-.19,0,.21.21,0,0,0-.1.17v5a.16.16,0,0,1-.06.12.17.17,0,0,1-.14,0l-.81-.47a.45.45,0,0,0-.39,0l-3.23,1.87a.4.4,0,0,0-.2.34v3.73a.4.4,0,0,0,.2.33l3.23,1.87a.39.39,0,0,0,.39,0L31,23.88a.38.38,0,0,0,.2-.33v-9.3a.38.38,0,0,0-.2-.34l-1.93-1.08Zm-.29,9.49a.08.08,0,0,1-.05.08l-1.1.64a.09.09,0,0,1-.1,0L26.4,22.4s0,0,0-.08V21a.1.1,0,0,1,0-.09l1.11-.64h.1l1.1.64a.12.12,0,0,1,.05.09v1.28ZM39.81,21a.39.39,0,0,0,.19-.34v-.91a.39.39,0,0,0-.19-.33L36.6,17.57a.39.39,0,0,0-.39,0L33,19.44a.38.38,0,0,0-.2.33V23.5a.4.4,0,0,0,.2.34l3.21,1.83a.42.42,0,0,0,.38,0l2-1.09a.19.19,0,0,0,.1-.16.19.19,0,0,0-.1-.17l-3.25-1.87a.21.21,0,0,1-.1-.17V21.05a.19.19,0,0,1,.1-.17l1-.58a.18.18,0,0,1,.2,0l1,.58a.19.19,0,0,1,.1.17V22a.19.19,0,0,0,.1.17.18.18,0,0,0,.2,0L39.81,21Z"/><path class="cls-3" d="M36.36,20.83h.07l.62.36a.08.08,0,0,1,0,.07V22a.05.05,0,0,1,0,.06l-.62.36a0,0,0,0,1-.07,0L35.74,22a.07.07,0,0,1,0-.06v-.72a.1.1,0,0,1,0-.07Z"/><path id="a-4" data-name="a" class="cls-5" d="M18.92,17.58a.45.45,0,0,0-.39,0l-3.21,1.86a.37.37,0,0,0-.19.33v3.72a.41.41,0,0,0,.19.33l3.21,1.85a.39.39,0,0,0,.39,0l3.21-1.85a.39.39,0,0,0,.19-.33V19.77a.37.37,0,0,0-.19-.33Z"/><g class="cls-6"><path class="cls-7" d="M18.53,17.58l-3.22,1.86a.41.41,0,0,0-.21.33v3.72a.37.37,0,0,0,.1.24l3.62-6.19a.42.42,0,0,0-.29,0Zm.31,8.13.09,0,3.22-1.85a.4.4,0,0,0,.2-.33V19.77a.36.36,0,0,0-.12-.26l-3.39,6.2Z"/><path class="cls-8" d="M22.14,19.44l-3.23-1.86-.09,0L15.2,23.74l.11.09,3.22,1.85a.39.39,0,0,0,.3,0l3.39-6.21a.27.27,0,0,0-.08-.07Z"/></g><g class="cls-9"><path class="cls-7" d="M22.35,23.49V19.77a.39.39,0,0,0-.21-.33l-3.23-1.86-.12,0,3.53,6a.11.11,0,0,0,0-.08Zm-7-4a.41.41,0,0,0-.21.33v3.72a.41.41,0,0,0,.21.33l3.22,1.85a.37.37,0,0,0,.25,0l-3.45-6.29Z"/><path class="cls-10" d="M18.43,16.91l-.05,0h.06Z"/><path class="cls-11" d="M22.15,23.82a.41.41,0,0,0,.19-.24l-3.54-6a.36.36,0,0,0-.27,0l-3.21,1.85,3.46,6.3.14-.05,3.23-1.86Z"/><path class="cls-12" d="M22.44,23.76l0,0v.05Z"/><path class="cls-13" d="M22.15,23.82l-3.22,1.85a.38.38,0,0,1-.15,0l.07.11,3.56-2.06v-.05l-.09-.15a.32.32,0,0,1-.17.25Z"/><path class="cls-14" d="M22.15,23.82l-3.22,1.85a.38.38,0,0,1-.15,0l.07.11,3.56-2.06v-.05l-.09-.15a.32.32,0,0,1-.17.25Z"/></g></g></g></svg>