<svg xmlns="http://www.w3.org/2000/svg" viewBox="0 0 46.28 46.28"><defs><style>.cls-1{fill:#fff;stroke:#606060;stroke-miterlimit:10;}.cls-2{fill:#00c492;}.cls-3{fill:#008776;}.cls-4{fill:#2d4a5d;}</style></defs><g id="Layer_2" data-name="Layer 2"><g id="Layer_1-2" data-name="Layer 1"><rect class="cls-1" x="0.5" y="0.5" width="45.28" height="45.28" rx="5"/><path class="cls-2" d="M16.67,34.55l-.06-.13a1.79,1.79,0,0,1-.12-1H8.69L20.28,13.06l3.81,6.69,1.1-2L21.87,12a2,2,0,0,0-1.62-1.07A1.81,1.81,0,0,0,18.68,12L6.94,32.61a2.08,2.08,0,0,0-.1,1.94,1.8,1.8,0,0,0,1.72.83h9.83a1.79,1.79,0,0,1-1.72-.83Z"/><path class="cls-3" d="M39.28,32.61l-9.65-17A2,2,0,0,0,28,14.53a1.79,1.79,0,0,0-1.57,1.08l-1.25,2.18,1.11,2L28,16.7l9.54,16.75H33.93a1.67,1.67,0,0,1-.07.83,1.19,1.19,0,0,1-.08.16l0,.07a2.08,2.08,0,0,1-1.75.87h5.68a2.08,2.08,0,0,0,1.75-.87,1.81,1.81,0,0,0-.15-1.9Z"/><path class="cls-4" d="M33.75,34.51l0-.07a1.19,1.19,0,0,0,.08-.16,1.67,1.67,0,0,0,.07-.83,2.5,2.5,0,0,0-.31-.84L26.31,19.75l-1.12-2-1.11,2L16.77,32.61a2.77,2.77,0,0,0-.28.84,1.7,1.7,0,0,0,.11,1l.06.13a1.8,1.8,0,0,0,1.72.83H32a2.09,2.09,0,0,0,1.76-.87ZM25.19,21.7l6.68,11.75H18.51Z"/></g></g></svg>