<svg xmlns="http://www.w3.org/2000/svg" viewBox="0 0 46.28 46.28"><defs><style>.cls-1{fill:#fff;stroke:#606060;stroke-miterlimit:10;}.cls-2{fill:#61dafb;}.cls-3{fill:#00d8ff;}</style></defs><g id="Layer_2" data-name="Layer 2"><g id="Layer_1-2" data-name="Layer 1"><rect class="cls-1" x="0.5" y="0.5" width="45.28" height="45.28" rx="5"/><path class="cls-2" d="M38,17.9c0-2-2.46-3.83-6.23-5C32.6,9.07,32.21,6,30.51,5a2.63,2.63,0,0,0-1.35-.34V6.05a1.47,1.47,0,0,1,.69.15c.82.47,1.17,2.27.9,4.58-.07.57-.18,1.16-.31,1.77a28.7,28.7,0,0,0-3.84-.65,30.39,30.39,0,0,0-2.51-3C26.06,7,27.91,6,29.16,6V4.69c-1.66,0-3.83,1.19-6,3.24-2.2-2-4.38-3.21-6-3.21V6.06c1.25,0,3.11,1,5.08,2.82a27.68,27.68,0,0,0-2.5,3,26.66,26.66,0,0,0-3.84.66c-.14-.6-.24-1.19-.32-1.75-.28-2.31.07-4.11.88-4.58a1.37,1.37,0,0,1,.7-.16V4.72a2.7,2.7,0,0,0-1.37.34c-1.69,1-2.07,4-1.2,7.86-3.76,1.16-6.2,3-6.2,5s2.46,3.82,6.23,5c-.87,3.85-.49,6.91,1.22,7.88a2.64,2.64,0,0,0,1.36.34c1.66,0,3.83-1.18,6-3.24,2.2,2,4.38,3.22,6,3.22a2.64,2.64,0,0,0,1.36-.34c1.7-1,2.08-4,1.21-7.86,3.74-1.16,6.19-3,6.19-5Zm-7.87-4c-.22.77-.5,1.58-.81,2.38-.25-.48-.51-1-.79-1.45s-.58-1-.87-1.41a23.47,23.47,0,0,1,2.47.48ZM27.33,20.3c-.48.82-1,1.59-1.46,2.31q-1.35.12-2.73.12c-.91,0-1.83,0-2.72-.12-.5-.71-1-1.48-1.46-2.29s-.88-1.6-1.26-2.41c.37-.81.8-1.62,1.25-2.41s1-1.59,1.46-2.31c.9-.07,1.81-.12,2.73-.12s1.82,0,2.72.12c.5.72,1,1.48,1.46,2.29s.88,1.6,1.26,2.41c-.38.81-.8,1.62-1.25,2.41Zm2-.79c.32.81.6,1.62.83,2.41-.79.19-1.62.36-2.49.48.3-.46.59-.94.87-1.43s.54-1,.79-1.46ZM23.15,26A25.56,25.56,0,0,1,21.47,24c.54,0,1.1,0,1.66,0s1.13,0,1.68,0A21.62,21.62,0,0,1,23.15,26Zm-4.5-3.56c-.85-.12-1.68-.28-2.47-.47.22-.78.5-1.59.81-2.39.25.48.51,1,.79,1.45S18.36,21.94,18.65,22.4ZM23.12,9.83c.56.58,1.12,1.23,1.68,1.93-.54,0-1.1,0-1.66,0s-1.13,0-1.68,0A23.13,23.13,0,0,1,23.12,9.83Zm-4.47,3.56c-.3.46-.59.94-.87,1.43s-.54,1-.79,1.45c-.32-.81-.6-1.62-.83-2.4.79-.19,1.62-.36,2.49-.48ZM13.18,21C11,20,9.66,18.84,9.66,17.9s1.38-2.16,3.52-3.06a15.61,15.61,0,0,1,1.67-.61,31,31,0,0,0,1.36,3.68,29.26,29.26,0,0,0-1.34,3.66A17.52,17.52,0,0,1,13.18,21Zm3.25,8.64c-.82-.47-1.18-2.27-.9-4.58.07-.56.18-1.16.31-1.77a30,30,0,0,0,3.84.66,30,30,0,0,0,2.51,3c-2,1.83-3.82,2.83-5.08,2.83a1.52,1.52,0,0,1-.68-.16ZM30.76,25c.29,2.31-.06,4.11-.88,4.58a1.33,1.33,0,0,1-.69.16c-1.25,0-3.11-1-5.08-2.82a27.73,27.73,0,0,0,2.5-3,30,30,0,0,0,3.84-.66A15,15,0,0,1,30.76,25Zm2.33-4a15.61,15.61,0,0,1-1.67.61,31,31,0,0,0-1.36-3.68,29.26,29.26,0,0,0,1.34-3.66c.6.19,1.16.39,1.7.62,2.14.91,3.52,2.11,3.52,3.06S35.23,20.05,33.09,21Z"/><circle class="cls-2" cx="23.13" cy="17.9" r="2.76"/><path class="cls-3" d="M10.46,39.47V34.65h1.63a2.07,2.07,0,0,1,.93.19,1.31,1.31,0,0,1,.54.53,1.76,1.76,0,0,1,0,1.51,1.29,1.29,0,0,1-.54.52,2,2,0,0,1-.92.19H10.78v-.53h1.3A1.5,1.5,0,0,0,12.7,37a.78.78,0,0,0,.35-.32,1.12,1.12,0,0,0,.11-.5,1.19,1.19,0,0,0-.11-.51.75.75,0,0,0-.35-.33,1.41,1.41,0,0,0-.63-.12h-1v4.3Zm2.27-2.17,1.19,2.17h-.68L12.07,37.3Z"/><path class="cls-3" d="M16,39.54a1.63,1.63,0,0,1-.9-.23,1.47,1.47,0,0,1-.58-.65,2.13,2.13,0,0,1-.21-1,2.17,2.17,0,0,1,.21-1,1.53,1.53,0,0,1,.57-.66,1.49,1.49,0,0,1,.85-.24,1.82,1.82,0,0,1,.56.09,1.55,1.55,0,0,1,.5.31,1.46,1.46,0,0,1,.36.55,2.37,2.37,0,0,1,.13.85v.24H14.68v-.48H16.9a1.23,1.23,0,0,0-.12-.55.89.89,0,0,0-.35-.37.88.88,0,0,0-.52-.14,1,1,0,0,0-.57.16,1.07,1.07,0,0,0-.37.42,1.25,1.25,0,0,0-.13.57v.31a1.62,1.62,0,0,0,.14.7,1,1,0,0,0,.4.43,1.13,1.13,0,0,0,.59.15,1.18,1.18,0,0,0,.39-.07.77.77,0,0,0,.31-.19.76.76,0,0,0,.2-.31l.54.15a1.19,1.19,0,0,1-.29.48,1.39,1.39,0,0,1-.49.32A1.76,1.76,0,0,1,16,39.54Z"/><path class="cls-3" d="M19.24,39.55a1.38,1.38,0,0,1-.62-.13,1,1,0,0,1-.45-.38,1,1,0,0,1-.16-.6,1,1,0,0,1,.12-.5.9.9,0,0,1,.33-.31,1.5,1.5,0,0,1,.45-.16,4.37,4.37,0,0,1,.5-.09l.54-.07a1,1,0,0,0,.3-.07.21.21,0,0,0,.09-.19v0a.73.73,0,0,0-.19-.54.76.76,0,0,0-.57-.19,1,1,0,0,0-.62.17,1.08,1.08,0,0,0-.32.37l-.53-.18a1.3,1.3,0,0,1,.38-.52,1.5,1.5,0,0,1,.52-.26,2.08,2.08,0,0,1,.55-.07,2,2,0,0,1,.4,0,1.26,1.26,0,0,1,.44.17,1,1,0,0,1,.36.38,1.48,1.48,0,0,1,.14.69v2.38h-.56V39h0a.79.79,0,0,1-.19.25.93.93,0,0,1-.35.23A1.36,1.36,0,0,1,19.24,39.55Zm.08-.5a1.19,1.19,0,0,0,.56-.12.86.86,0,0,0,.46-.77v-.51a.26.26,0,0,1-.15.08l-.28.06-.29,0-.24,0A2.35,2.35,0,0,0,19,38a.58.58,0,0,0-.3.19.45.45,0,0,0-.12.33.52.52,0,0,0,.22.44A.91.91,0,0,0,19.32,39.05Z"/><path class="cls-3" d="M23.25,39.54a1.5,1.5,0,0,1-1.44-.9,2.43,2.43,0,0,1,0-1.93,1.67,1.67,0,0,1,.57-.66,1.54,1.54,0,0,1,.86-.24,1.65,1.65,0,0,1,.68.14,1.42,1.42,0,0,1,.51.39,1.23,1.23,0,0,1,.24.6h-.56a.81.81,0,0,0-.28-.44.83.83,0,0,0-.58-.19,1,1,0,0,0-.57.16,1.21,1.21,0,0,0-.38.48,1.73,1.73,0,0,0-.14.71,1.83,1.83,0,0,0,.14.73,1.07,1.07,0,0,0,.37.48,1,1,0,0,0,.58.18,1,1,0,0,0,.39-.08.8.8,0,0,0,.47-.56h.56a1.29,1.29,0,0,1-.23.58,1.37,1.37,0,0,1-.49.4A1.57,1.57,0,0,1,23.25,39.54Z"/><path class="cls-3" d="M26.91,35.86v.47H25v-.47ZM25.59,35h.55v3.44a.74.74,0,0,0,.07.35.39.39,0,0,0,.18.16.59.59,0,0,0,.23,0h.15l.1,0,.11.5-.16,0a.9.9,0,0,1-.25,0,1.06,1.06,0,0,1-.46-.1.84.84,0,0,1-.37-.3.9.9,0,0,1-.15-.53Z"/><path class="cls-3" d="M31.27,34.65h.58v3.44a1.62,1.62,0,0,1-.17.79,1.17,1.17,0,0,1-.47.49,1.54,1.54,0,0,1-.73.16,1.56,1.56,0,0,1-.7-.14,1.16,1.16,0,0,1-.49-.41,1.11,1.11,0,0,1-.17-.64h.57a.61.61,0,0,0,.38.59.91.91,0,0,0,.41.09.83.83,0,0,0,.43-.11.63.63,0,0,0,.27-.31,1.29,1.29,0,0,0,.09-.51Z"/><path class="cls-3" d="M35.52,35.86a.74.74,0,0,0-.34-.56,1.34,1.34,0,0,0-.74-.2,1.4,1.4,0,0,0-.56.11.89.89,0,0,0-.37.28.67.67,0,0,0-.13.41.58.58,0,0,0,.09.33.76.76,0,0,0,.24.23,1.68,1.68,0,0,0,.3.15l.3.09.49.13.42.14a2.11,2.11,0,0,1,.44.24,1.16,1.16,0,0,1,.35.38,1,1,0,0,1,.14.57,1.33,1.33,0,0,1-.2.71,1.53,1.53,0,0,1-.59.5,2.27,2.27,0,0,1-1,.18,2.21,2.21,0,0,1-.89-.16,1.5,1.5,0,0,1-.6-.47,1.36,1.36,0,0,1-.24-.69h.6a.77.77,0,0,0,.19.45.91.91,0,0,0,.41.26,1.51,1.51,0,0,0,.53.09,1.64,1.64,0,0,0,.6-.11,1,1,0,0,0,.42-.31.73.73,0,0,0,.16-.46.56.56,0,0,0-.14-.39.91.91,0,0,0-.35-.24,3.26,3.26,0,0,0-.47-.17l-.6-.17a2.27,2.27,0,0,1-.89-.46,1,1,0,0,1-.33-.79,1.17,1.17,0,0,1,.22-.71,1.62,1.62,0,0,1,.59-.47,2.06,2.06,0,0,1,.84-.16,2,2,0,0,1,.83.16,1.43,1.43,0,0,1,.57.45,1.2,1.2,0,0,1,.23.66Z"/></g></g></svg>