<svg xmlns="http://www.w3.org/2000/svg" viewBox="0 0 46.28 46.28"><defs><style>.cls-1{fill:#fff;stroke:#606060;stroke-miterlimit:10;}.cls-2{fill:#cf649a;}</style></defs><g id="Layer_2" data-name="Layer 2"><g id="Layer_1-2" data-name="Layer 1"><rect class="cls-1" x="0.5" y="0.5" width="45.28" height="45.28" rx="5"/><path class="cls-2" d="M36.06,25.13a7.42,7.42,0,0,0-3.25.76,6.75,6.75,0,0,1-.72-1.68A4.67,4.67,0,0,1,32,22.79a11.59,11.59,0,0,1,.43-1.52c0-.06-.08-.37-.8-.38s-1.34.14-1.41.33a7.85,7.85,0,0,0-.3,1.07,25.41,25.41,0,0,1-2.19,4.21,4.28,4.28,0,0,1-.5-1.23,4.62,4.62,0,0,1-.06-1.41,11.9,11.9,0,0,1,.43-1.53c0-.06-.08-.37-.8-.37s-1.34.14-1.41.32-.15.64-.3,1.07-1.9,4.33-2.35,5.34c-.23.52-.44.93-.58,1.21s0,0,0,.05l-.19.37h0c-.1.17-.2.34-.25.34a2.21,2.21,0,0,1,0-1.11c.26-1.35.89-3.46.88-3.53s.12-.41-.4-.6a.64.64,0,0,0-.74.13s-.07.11-.07.11S22,23.3,20.3,23.3c-1,0-2.46,1.12-3.17,2.15l-2.4,1.32-1.16.63-.08-.08c-2-2.13-5.7-3.64-5.55-6.51.06-1,.42-3.79,7.11-7.12,5.48-2.73,9.86-2,10.62-.32,1.09,2.38-2.34,6.8-8,7.44A4.32,4.32,0,0,1,14,19.9c-.3-.33-.34-.34-.45-.28s-.07.39,0,.57a3.39,3.39,0,0,0,2.05,1.61,10.93,10.93,0,0,0,6.67-.66c3.45-1.33,6.14-5,5.35-8.14s-6-4.19-11-2.43A25,25,0,0,0,8.25,15.4c-2.73,2.55-3.16,4.77-3,5.7.64,3.29,5.18,5.44,7,7l-.26.14c-.9.45-4.37,2.26-5.23,4.18-1,2.17.15,3.73.91,3.94a5.6,5.6,0,0,0,6-2.44,6.07,6.07,0,0,0,.54-5.56l0-.05.72-.42c.46-.27.91-.52,1.31-.74a9.12,9.12,0,0,0-.47,2.38A5,5,0,0,0,16.85,33a1.17,1.17,0,0,0,.86.28c.77,0,1.12-.63,1.51-1.39.47-.93.89-2,.89-2s-.52,2.92.91,2.92c.53,0,1.05-.68,1.29-1h0l0-.07a.57.57,0,0,0,.08-.13h0c.21-.37.68-1.2,1.38-2.58.9-1.77,1.77-4,1.77-4a14.7,14.7,0,0,0,.34,1.44,13.58,13.58,0,0,0,.75,1.68l-.33.46h0c-.16.23-.35.46-.55.7a20.13,20.13,0,0,0-1.68,2.11.57.57,0,0,0,.16.76,1.38,1.38,0,0,0,.88.14,3.79,3.79,0,0,0,1.31-.3,4.44,4.44,0,0,0,1.14-.59,2.52,2.52,0,0,0,1.08-2.23,4.56,4.56,0,0,0-.41-1.57,2.75,2.75,0,0,1,.19-.28,29.76,29.76,0,0,0,1.95-3.4,13.47,13.47,0,0,0,.35,1.44,10.45,10.45,0,0,0,.63,1.45,6.29,6.29,0,0,0-1.91,2.46c-.41,1.19-.09,1.73.52,1.86a1.89,1.89,0,0,0,1-.2,4.49,4.49,0,0,0,1.21-.62,2.76,2.76,0,0,0,1.34-2.21,4.25,4.25,0,0,0-.31-1.31,6.94,6.94,0,0,1,3.47-.4c3.12.37,3.73,2.31,3.61,3.12a2.12,2.12,0,0,1-1,1.4c-.22.13-.29.18-.27.28s.13.14.31.11A2.42,2.42,0,0,0,41,29.13c.08-1.92-1.74-4-5-4Zm-24,8.09C11,34.35,9.58,34.77,9,34.41s-.41-2,.86-3.24a16.13,16.13,0,0,1,2.42-1.81l.64-.38.07-.05.16-.09a4.46,4.46,0,0,1-1.06,4.38Zm7.51-5.11c-.35.87-1.11,3.12-1.56,3s-.63-1.8-.08-3.48a7.67,7.67,0,0,1,1.22-2.24c.57-.63,1.19-.84,1.34-.59S19.8,27.56,19.57,28.11Zm6.21,3c-.16.08-.3.14-.36.1s.06-.14.06-.14.78-.83,1.09-1.21.38-.49.61-.78v.08a2.58,2.58,0,0,1-1.4,1.95ZM30.56,30c-.11-.08-.1-.34.28-1.15a4.37,4.37,0,0,1,1.06-1.37,1.66,1.66,0,0,1,.11.6A2,2,0,0,1,30.56,30Z"/></g></g></svg>