<svg xmlns="http://www.w3.org/2000/svg" xmlns:xlink="http://www.w3.org/1999/xlink" viewBox="0 0 46.28 46.28"><defs><style>.cls-1{fill:#fff;stroke:#606060;stroke-miterlimit:10;}.cls-2{fill:#252a2f;}.cls-3{fill:url(#linear-gradient);}.cls-4{fill:url(#linear-gradient-2);}</style><linearGradient id="linear-gradient" x1="-67.89" y1="126.79" x2="-67.65" y2="126.79" gradientTransform="translate(2680.24 -4950.04) scale(39.18)" gradientUnits="userSpaceOnUse"><stop offset="0" stop-color="#45a9b3"/><stop offset="0.39" stop-color="#3faeb0"/><stop offset="1" stop-color="#2cbbab"/></linearGradient><linearGradient id="linear-gradient-2" x1="-67.97" y1="126.88" x2="-67.73" y2="126.88" xlink:href="#linear-gradient"/></defs><g id="Layer_2" data-name="Layer 2"><g id="Layer_1-2" data-name="Layer 1"><rect class="cls-1" x="0.5" y="0.5" width="45.28" height="45.28" rx="5"/><path class="cls-2" d="M40.34,25.28l-.81.11a.91.91,0,0,0-.33-.54c-.27-.22-1.19-.17-1.19.38s.38.43,1.14.59,1.3.38,1.3,1.36c0,.54-.38,1.2-1.57,1.2-2,0-1.79-1.47-1.79-1.47H38s0,.49.38.6,1,.11,1.14-.22.1-.71-.93-.81-1.46-.6-1.46-1.31S37.52,24,38.88,24a1.45,1.45,0,0,1,1.46,1.3Zm-3.74,0-.82.11a.93.93,0,0,0-.32-.54c-.27-.22-1.19-.17-1.19.38s.37.43,1.13.59,1.31.38,1.31,1.36c0,.54-.38,1.2-1.58,1.2-2,0-1.79-1.47-1.79-1.47h.93s0,.49.37.6,1,.11,1.14-.22.11-.71-.92-.81-1.41-.49-1.41-1.09v-.22c.06-.65.44-1.19,1.74-1.19a1.5,1.5,0,0,1,1.41,1.3ZM32,26.8h.92v.06a1.6,1.6,0,0,1-1.79,1.46c-1.41,0-1.9-1.08-1.9-2.22a1.9,1.9,0,0,1,2-2.07,1.53,1.53,0,0,1,1.57,1.41l-.87.11a.8.8,0,0,0-.81-.76c-.76,0-1,.6-1,1.31s.21,1.52,1,1.52A1,1,0,0,0,32,26.8Zm-4.62-2.66v4.13h-.76v-.38a1.06,1.06,0,0,1-.92.49c-.71,0-1.19-.33-1.25-1.58s.82-1.63,1.36-1.63a1.16,1.16,0,0,1,.81.38V24.14Zm-.76,2.61c0-.44-.05-.93-.7-.93s-.65.76-.65,1,0,.87.65.87.7-.49.7-.92Zm-2.77-.55v2H23V26.26a.46.46,0,0,0-.49-.49.65.65,0,0,0-.65.54v1.9h-.81v-3h.81v.44A1.07,1.07,0,0,1,23,25.12,1,1,0,0,1,23.84,26.2Zm-4.23-1h.81v3h-.81Zm0-1.09h.81v.71h-.81Zm-.33,1.09-.86,3H17.6l-.54-2-.54,2h-.76l-.87-3h.87l.43,1.95.6-1.95h.7l.49,2,.44-2Zm-5.59-1.14h.82v4.12h-.82Zm-1.46,1.14H13v3h-.81Zm0-1.09H13v.71h-.81Zm-.65,2.17v1.9h-.76v-.38a1.34,1.34,0,0,1-.55.38,1.11,1.11,0,0,1-1.41-.49.9.9,0,0,1,.44-1.14,3.53,3.53,0,0,1,1.46-.21.51.51,0,0,0,0-.38c-.06-.17-.22-.22-.44-.22-.54,0-.54.38-.54.38L9,26.1a.89.89,0,0,1,.38-.66,1.57,1.57,0,0,1,1-.21C10.93,25.23,11.58,25.44,11.58,26.31Zm-1.25,1.36c.54-.11.49-.76.49-.76H10.6a2,2,0,0,0-.54.05.59.59,0,0,0-.44.28.36.36,0,0,0,.17.43A.94.94,0,0,0,10.33,27.67ZM9.19,24.09v.81H7.94v3.37H7V24.85H5.82v-.76Z"/><path class="cls-3" d="M29.22,17.63a2.2,2.2,0,0,1-2.07.92c-1.3-.22-1.51-2.17-3.85-2.17a3,3,0,0,0-3.2,2.44,2.26,2.26,0,0,1,2.06-1c1.25.21,1.74,2.17,4.29,2.17A2.67,2.67,0,0,0,29.22,17.63Z"/><path class="cls-4" d="M26.18,21.27a2.19,2.19,0,0,1-2.06.92C22.81,22,22.6,20,20.26,20a3,3,0,0,0-3.2,2.44,2.28,2.28,0,0,1,2.06-1c1.2.22,1.74,2.17,4.29,2.17A2.67,2.67,0,0,0,26.18,21.27Z"/></g></g></svg>